# xmcd
#
# Track frame offsets: 
#        150
#        4125
#        22620
#        51243
#        73433
#        101838
#        107575
#        147038
#        163450
#        189143
#
# Disc length: 2696 seconds
#
# Revision: 0
# Processed by: cddbd v1.5.2PL0 Copyright (c) Steve Scherf et al.
# Submitted via: ExactAudioCopy v1.3
#
DISCID=830a860a
DTITLE=Buddy Guy and Junior Wells - Drinkin' TNT 'N' Smokin' Dynamite
DYEAR=1988
DGENRE=Chicago Blues
TTITLE0=Introduction
TTITLE1=Ah'w Baby-Everything Gonna Be Alright
TTITLE2=How Can One Woman Be So Mean
TTITLE3=Checking On My Baby
TTITLE4=When You See The Tears From My Eyes
TTITLE5=Introduction
TTITLE6=Ten Years Ago
TTITLE7=Messing With The Kid
TTITLE8=Hoodoo Man Blues
TTITLE9=My Younger Days
EXTD=
EXTT0=
EXTT1=
EXTT2=
EXTT3=
EXTT4=
EXTT5=
EXTT6=
EXTT7=
EXTT8=
EXTT9=
PLAYORDER=
